<?xml version="1.0" encoding="UTF-8"?>
<svg id="Layer_1" data-name="Layer 1" xmlns="http://www.w3.org/2000/svg" viewBox="0 0 50 50">
  <defs>
    <style>
      .cls-1 {
        fill: #a64208;
      }

      .cls-1, .cls-2 {
        stroke-width: 0px;
      }

      .cls-2 {
        fill: #fff;
      }
    </style>
  </defs>
  <g id="circle">
    <circle class="cls-1" cx="25" cy="25" r="24.92"/>
    <path class="cls-2" d="M25,.15c13.7,0,24.85,11.15,24.85,24.85s-11.15,24.85-24.85,24.85S.15,38.7.15,25,11.3.15,25,.15M25,0C11.19,0,0,11.19,0,25s11.19,25,25,25,25-11.19,25-25S38.81,0,25,0h0Z"/>
  </g>
  <path class="cls-2" d="M17.5,27.36c-.83-.11-1.45-.4-1.85-.85s-.6-.95-.6-1.48.22-1.05.65-1.56c.44-.51,1.09-.77,1.96-.77h2.87c1.46,0,3.03,0,4.72-.03,1.69-.02,3.26-.03,4.72-.03h2.87c.72.19,1.25.5,1.59.94.34.44.51.9.51,1.39,0,.53-.19,1-.57,1.42-.38.42-.95.72-1.7.91-2.54,0-5.07,0-7.59.03-2.52.02-5.05.03-7.59.03Z"/>
</svg>