<?xml version="1.0" encoding="UTF-8"?>
<svg id="Layer_1" data-name="Layer 1" xmlns="http://www.w3.org/2000/svg" viewBox="0 0 50 50">
  <defs>
    <style>
      .cls-1 {
        fill: #a64208;
      }

      .cls-1, .cls-2 {
        stroke-width: 0px;
      }

      .cls-2 {
        fill: #fff;
      }
    </style>
  </defs>
  <g id="circle">
    <circle class="cls-1" cx="25" cy="25" r="24.92"/>
    <path class="cls-2" d="M25,.15c13.7,0,24.85,11.15,24.85,24.85s-11.15,24.85-24.85,24.85S.15,38.7.15,25,11.3.15,25,.15M25,0C11.19,0,0,11.19,0,25s11.19,25,25,25,25-11.19,25-25S38.81,0,25,0h0Z"/>
  </g>
  <g id="more">
    <path class="cls-2" d="M13.98,26.22c-.4-.45-.6-.95-.6-1.48,0-.57.22-1.09.65-1.56.44-.47,1.09-.73,1.96-.77h6.31v-8.35c.19-.76.49-1.33.91-1.7.42-.38.89-.57,1.42-.57.49,0,.96.17,1.39.51.44.34.75.87.94,1.59v8.52h7.56c.72.19,1.25.5,1.59.94.34.44.51.9.51,1.39,0,.53-.19,1-.57,1.42-.38.42-.95.72-1.7.91h-7.39v8.52c-.04.87-.29,1.52-.77,1.96-.47.44-.99.65-1.56.65-.53,0-1.02-.2-1.48-.6s-.74-1.01-.85-1.85v-8.69h-6.48c-.83-.11-1.45-.4-1.85-.85Z"/>
  </g>
</svg>